<svg version="1.2" xmlns="http://www.w3.org/2000/svg" viewBox="0 0 460 460" width="460" height="460"><style>.a{fill:none}.b{fill:#4faf3b}</style><filter id="f0"><feFlood flood-color="#f7ab00" flood-opacity="1" /><feBlend mode="normal" in2="SourceGraphic"/><feComposite in2="SourceAlpha" operator="in" /></filter><g filter="url(#f0)"><path fill-rule="evenodd" class="a" d="m21 0h417.5v459.2h-417.5z"/><path class="b" d="m413 335.7l-3.4 3.2-12.8 6.4-12.3-1.9-7.5 8.3 1.5 7 5.9-1.1 9.7-10.4 5.2 4-10 8.4 11.4 13.3-5.7 2.8-9.6-8.9-6 3.2v7.2h-2.4l-3-6.1-0.8-19.4 9.7-12 12.5 2.1z"/><path class="b" d="m351.7 370l-2-9-18.5 1.2-6.7-18.5 6.7-8 7.3 5-0.2-8.9 16.9-24.1 3 1.2 13.9-19.9 2.8 1.2-13.6 20.5 4.9 3-4.6 5.2 4.6 14.7 13.2-0.9-2.4 7.9-8.8 0.5-9.8 16.3 1.6 11.2z"/><path class="b" d="m359.5 215.5l-2.9-11h-9.6l5.7-13.4 7.9-3.1-6.9-4 13.8-5.7-2.2-10.9-4.9-3.9 2.6-4.9 14.8 6.8 8.5 24.8-14.4 8.4-3.5-7.5-4.5 10 3 14.4z"/><path class="b" d="m352.7 137.5l4.1-3.1 2.4 7.5 14.1 1.4-1.8 8.6-7.6-0.3-6 5.1-5.2-10z"/><path class="b" d="m360.4 275.4l-5.2 2.8-1-11.9h-7.1v-14.4l6.2-2.6 0.9 9.5 6.9 2.1 1.4 7.3h14.2l4 7.7 7.4-3.1 7.3 13.2-13.5 14 2.2-8.8-8.1-9-6.9 2.2z"/><path class="b" d="m329.3 226.4l4.2 20.1-6.3-2.3-2-10.9z"/><path class="b" d="m305.4 257.4l-3.3 10.8-5.4-3.9 3.8-6.9z"/><path class="b" d="m281 344.1l-3.8-11.2-5.5-1.8v-19.2h1.7l0.9 12.3 4.1-0.7 9.9 7.6 5.9 27.2 9.8 5.7 0.4 25.8 21.8-0.7 4.5 5 14-0.2 6.9 7.6 23.2-3.6 2.2 7.4-25.6 4.9-25.6-10.7-17.6-1.4-25.4-16.6-17.7-32.9-18.5-14.9 13-2.6 16.7 14.2z"/><path class="b" d="m279.5 165.8l-6.4 13.3 9.7 4.3 15.7-4.3-7.8 10.9 27.9 24-3 28.2-25.9 10.4 1.2-8.1-10.6 3.1-4.6 14.2 32.3 22.1-1.2 18.5-5.9 3.3 2.6 4.7-10.2 10.9v-10.6l-5.7-6.4-7.1 5.2-9.7-4.7-3.4-14.9-8.5 2.6-1.5 5.9-9.7 5.9 2.3-12.6-15.1-16.8-6.6 9.5-14.4-2.2 7.3 10.3-13.2 17.8-6.2-1v27.4l-8.3 8.6-18.7-24.2 3.3-6.6-7.8-5.2-16.4 2.8-14.4-12.3v-20.2l-9.1-11.6-21-1.4-4.6-6.7-7.5 4.6-21.8-10v-7.8l-10.9-25.9-11 3.8 2.2-8.8-9.3-3.5 1.9-16.8 11.6-3.1 24.5-30.3-12.4-10 18.5-2.6 6.2-25.1 40-5.2 26.6-17.1-3.8-7.8 62-10.8 37.8-33.1 65.9-1.4 1.6 12.3-10.2 2.1 1 6.2 18.7 1.7 8.3 15.4-32.5-9.5-2.8-13.8-10.9 1.5 1.6 7.6 11.9 13-18.2-2.8-19.9 3.3 1.4 14.2 22.7-5.7 33.2 19.2-1.4 20.4h-4.7l-4.8-5.5-7.3 3.3-1.9 10.7 9.4-2.4 1.9 10.9-6.6 9.5 14 12.1-6.4 5.7-13.5-12.8-13.8 0.7-3.8 6-3.5-2.4 2.6-7.1z"/><path class="b" d="m209.6 362.6l-3.6-4.3 4.2-4.2-0.6-23 10.5 7.8v13.7z"/></g></svg>