<svg version="1.2" xmlns="http://www.w3.org/2000/svg" viewBox="0 0 460 460" width="460" height="460"><style>.a{fill:none}.b{fill:#4faf3b}</style><filter id="f0"><feFlood flood-color="#f7ab00" flood-opacity="1" /><feBlend mode="normal" in2="SourceGraphic"/><feComposite in2="SourceAlpha" operator="in" /></filter><g filter="url(#f0)"><path fill-rule="evenodd" class="a" d="m21 0h417.5v459.2h-417.5z"/><path class="b" d="m381.8 308.6l-20.9-6.9c0 0-0.5 0-0.5-0.4l-9.4-8.5c-0.4-0.5-0.4-0.5-0.4-0.9l-0.9-6.9c-0.4-2.5-2.5-4.2-5.1-4.2h-9q-1.3 0-1.3-1.3l-1.3-5.2c0-0.8 0.5-1.7 0.9-1.7l1.7-0.4c1.7-0.4 3-2.1 3.4-3.8 0.5-1.8 0-3.9-1.7-5.2l-7.3-6.4c-0.4-0.4-0.4-0.4-0.4-0.9l-0.4-7.2c0-2.2-1.7-4.3-4.3-4.7l-13.3-2.6c-0.8 0-1.2-0.9-1.2-1.3l-0.9-20.1c0-0.4 0-0.9-0.4-1.7l-3.5-9.5c-0.4-0.8 0-1.7 0.9-1.7l3.4-1.2c0.9-0.5 1.3-1.3 0.9-2.2 0-0.8-0.9-1.3-1.7-1.3h-18c-2.2 0-3.9 1.3-4.7 3.5l-1.7 4.7c-0.5 1.2-0.5 3 0.4 4.2l3.8 7.7q0.7 0.7 0 1.3l-3.4 6c-0.4 0.9-1.3 1.3-2.1 0.5l-3.4-3c-0.9-0.9-2.2-1.3-3.5-1.3-2.5 0-4.2 1.7-5.1 3.8l-4.3 17.6-4.3 12.4c0 0.4-0.8 0.8-1.2 0.8h-9c-0.9 0-1.3-0.4-1.3-0.8l-0.9-2.1c-0.4-0.9-1.3-1.3-2.1-1.3l-15 4.2c-1.7 0.5-2.6 1.3-3.4 3l-3.9 8.6c-0.4 0.9-1.3 0.9-1.3 0.9-0.4 0-0.8 0-1.2-0.9l-3.9-8.6c-0.9-1.7-2.6-3-4.7-3h-0.4l-12 1.3c-0.5 0-0.9-0.4-1.3-0.8l-4.7-7.3q-0.7-0.6 0-1.3l4.7-11.5c0.4-0.9 0.4-1.3 0.4-2.2l-0.4-9.4c0-3.4-3.9-6-7.3-4.3l-4.3 1.3c-1.3 0.4-2.5 2.1-3 3.4l-2.5 11.2c-0.5 0.8 0 1.7 0 3l5.1 14.9 3 6.9v1.3c0 0.4-0.4 0.8-0.9 0.8l-8.1 3.5h-0.8l-3.5-0.9c-2.1-0.4-4.3 0.4-5.5 2.1l-12.9 20.6c0 0.4-0.4 0.4-0.8 0.4l-9.5 3.4c-0.8 0.5-1.7 0.9-2.1 1.7l-10.7 13.7c-0.4 0.5-0.9 0.5-1.3 0.5l-3-0.5c-2.5-0.4-5.5 1.3-6 4.3 0 0.5-0.8 1.3-1.3 1.3l-4.2 0.4c-2.2 0.5-4.3 1.8-4.7 4.3-0.5 2.2 0.4 4.3 2.5 5.6l3.9 2.1c0.4 0 0.4 0.5 0.4 0.5l9.9 19.6v1.3l-5.6 13.7c-0.4 0.5-0.9 0.9-1.3 0.9h-39.8c-3 0-5.1 2.1-5.1 5.1v42.8c0 3 2.1 5.2 5.1 5.2h8.6c0.4 0 0.8 0.4 1.2 0.8l0.9 1.7c0.8 1.7 2.6 2.6 4.3 2.6 0.8 0 1.7 0 2.5-0.4l4.3-2.2h0.9l12.4-0.4c1.3 0 3-0.8 3.8-1.7l9.5-11.6c0.4-0.4 0.8-1.2 0.8-1.7l4.7-16.2c0-0.5 0.5-0.9 0.9-0.9l12-6.4q2.5-1.3 2.5-3.9l0.9-7.2q0-1.3 1.3-1.3l15.8-3c1.3-0.5 2.6-0.9 3.4-2.2l3-3.8c0.5-0.5 0.9-0.5 1.8-0.5l2.1 0.5c1.3 0.4 3 0 4.3-0.9l3-2.1q0.6-0.7 1.3 0l7.7 3c0.4 0 0.8 0.4 0.8 1.3l1.7 9.4c0 1.3 0.9 2.1 1.7 3l9.5 8.1 0.4 0.4 17.5 11.2c0.5 0 0.5 0.4 0.9 0.8l1.7 7.3v6c0 0.9 0.4 1.7 1.3 1.7 0.9 0.4 1.7 0 2.1-0.8l4.7-7.3c0.9-1.3 0.9-3 0.5-4.3l-1.7-5.6h0.4l4.7 2.6c0.4 0 0.4 0.4 0.9 0.4 0.8 0 1.7-0.8 1.7-1.7 0-0.4-0.5-0.8-0.5-1.3l-4.7-7.7c-0.4-0.8-1.3-1.7-2.1-2.1l-9-4.7-7.3-5.6-0.4-0.4-11.1-19.3c-0.5-0.4-0.5-1.3 0-1.7l5.1-7.3c0.4-0.8 1.7-0.8 2.6 0l10.7 15 3 4.7c0.8 1.3 2.1 2.2 3.4 2.2l7.3 0.8c0.4 0 0.4 0 0.8 0.4l9.9 8.2c0.4 0.4 0.4 0.8 0.4 1.3v13.2c0 0.9 0.4 2.2 0.9 3l8.5 13.3c0.4 0.9 1.3 1.7 2.6 2.1l3.4 1.3c-0.4 0.5-0.8 0.9-1.3 1.7-0.8 1.7-0.4 3.5 0.5 4.7l0.8 1.8c0.9 1.7 2.6 2.5 4.7 2.5h1.3c1.7 0 3-0.8 3.9-2.1 0.8-1.3 1.2-3 0.4-4.7l-3.9-11.2v-0.4l0.5-11.1c0-0.4 0.4-1.3 0.8-1.3l11.1-4.7h1.3l1.3 0.8c2.6 1.3 6 0 7.3-2.5l1.3-3.4c0-0.5 0.8-0.9 1.3-0.9l3.8-0.4c1.7 0 3-1.3 3.9-2.6 0.8-1.3 0.8-3 0.4-4.7v-1.7l12.8-27.8c0-0.5 0.5-0.9 0.9-0.9l12.4-2.6h0.4l5.2 2.2c0.4 0 0.8 0.4 0.8 0.8 0 0.5 0 0.9-0.4 1.3-1.3 1.7-1.3 3.4-0.4 5.2l1.7 3.4c1.3 2.5 4.7 3.8 7.3 2.1l5.1-3c1.3-0.8 2.1-2.1 2.6-3.4 0.4-1.3 0-3-1.3-4.3l-0.9-1.3c-0.4-0.4-0.8-0.8-1.7-1.3l26.1-17.9c1.3-0.9 2.2-2.6 2.2-4.3v-5.2c0-1.2-1.3-3.4-3.5-3.8z"/><path class="b" d="m231.6 405.8l-11.1 4.3q-0.7 0.6-1.3 1.2c0 0.5 0 1.3 0.4 1.7l4.3 4.8c0.4 0.4 0.8 0.4 1.3 0.4h6.4c0.8 0 1.7-0.9 1.7-1.7l0.9-9c0-0.4-0.5-1.3-0.9-1.7z"/><path class="b" d="m195.6 384.8l1.3-0.9c0.4-0.4 0.4-0.8 0.4-1.2v-5.6c0-0.9-0.4-1.3-1.2-1.7-0.9-0.5-1.8 0-2.2 0.4l-2.6 3.4c-0.4 0.5-0.4 1.3-0.4 2.2l0.9 2.1-4.7 3.9c-0.5 0.4-0.9 1.2-0.5 2.1l2.6 8.1q0 0.7 1.3 1.3h0.4c0.4 0 0.9 0 1.3-0.4l6-4.7c0.9-0.4 0.9-1.3 0.4-2.2z"/><path class="b" d="m107.9 244.8l-0.5 9c0 0.9 0.5 1.7 0.9 2.1 0.4 0.5 1.3 0.9 2.1 0.9h0.9l5.1-1.7 1.7 17.1-9.8 11.6c-0.9 0.8-0.9 2.1-0.4 3 0.4 0.8 1.3 1.7 2.1 2.1l8.6 1.3-4.3 3.8-10.3 4.7c-0.8 0.5-1.3 0.9-0.8 1.8 0.4 0.8 0.4 1.2 1.2 1.7l7.7 2.1h0.9c0.9 0 1.7-0.4 2.1-0.8l4.8-5.2 16.6-1.3c0.9 0 1.8-0.4 2.2-1.2l7.3-11.2c0.4-0.8 0.4-1.7 0.4-2.1l-0.9-4.7c-0.4-1.7-2.5-3-4.2-2.2l-2.6 1.3-1.3-3-1.3-13.7c0-0.4-0.4-0.8-0.4-1.3l-10.3-14.1c-0.4-0.4-0.4-0.8-0.8-0.8-3.5-1.8-5.6-3-6.9-3.5 0.9-1.3 2.6-3.4 5.2-7.2 0.4-0.5 0.4-0.9 0.4-1.3l0.8-5.2c0-1.3-0.8-3-2.1-3.4l-8.1-2.1h-1.3l4.7-6.9c0.4-0.4 0.4-1.3 0-1.7-0.4-0.4-0.9-0.9-1.7-0.9h-6.4c-0.9 0-2.2 0.5-2.6 1.3l-7.7 12.9c-0.5 0.8-0.5 2.1 0 3z"/><path class="b" d="m99.3 277.8l-0.9-8.2 3.5-7.2c0.4-0.9 0.4-1.8 0-2.2l-2.6-7.7c-0.4-1.3-1.7-2.1-3-2.1h-0.8l-11.6 3c-0.9 0-1.3 0.4-1.7 1.3l-4.7 6.8c-0.5 0.4-0.5 1.3-0.5 1.7v8.6c0 0.8 0.9 1.7 1.8 1.7h0.8c-1.3 1.3-1.3 1.7-1.3 2.1 0 0.9 0.5 1.7 1.7 2.6l-5.1 5.6c-0.9 1.2-0.9 3 0 4.2l2.1 2.2c0.5 0.4 1.3 0.8 2.2 0.8 0.4 0 1.3 0 1.7-0.4l16.7-9.8c1.3-0.5 1.7-1.7 1.7-3z"/><path class="b" d="m169.5 180.2c0.4 1.3 1.7 2.1 3 2.1h0.9l8.1-2.6-8.6 32.1c-0.4 0.9 0 1.8 0.5 2.6q0.6 1.3 2.5 1.3h16.7c1.3 0 2.6-0.9 3-1.7l5.2-12.9 18.8 45.8c0.4 1.3 1.7 1.8 2.6 1.8 0.4 0 0.8 0 1.3-0.5l12.4-6.4c0.8-0.4 1.7-1.3 1.7-2.6l3-33.8 9.4-2.5c1.3-0.5 2.1-1.3 2.1-2.6l0.5-4.7c0-0.9 0-1.7-0.9-2.2-0.4-0.4-1.3-0.8-2.6-0.8l-9.4 1.3 6.9-32.6 20.1-15.4c0.4-0.4 0.8-1.3 1.3-2.1l1.7-13.7 6.4-13.7 11.1-2.2 6.9 15-11.6 14.2-13.2 15.4c-0.5 0.4-0.9 1.2-0.9 2.1l1.7 23.1c0 0.9 0.4 1.7 1.3 2.2l9.4 7.7c0.4 0.4 1.3 0.8 1.7 0.8h0.9l10.3-3.8 13.7-0.5c0.8 0 1.7-0.4 2.1-1.2l21.8-28.7q1.3-2 0-3.9l-4.7-7.3-3.4-18.4 3.4-9.4c0.4-0.8 0.4-1.3 0-2.1l-6-16.3 3-18.4c0-0.9 0-1.7-0.8-2.6l-7.3-6.8 2.1-24 7.7-7.7c0.9-1.3 1.3-2.6 0.9-3.4l-1.3-3.4c-0.4-1.3-1.7-2.2-3-2.2l-29.1 0.9c-0.4 0-0.9 0-1.3 0.4l-23.5 12.4-20.1 12.4c-0.5 0.5-0.9 0.5-0.9 0.9l-19.7 28.2-0.4 0.5-19.7 41.1-5.6 3.8q-1.9 1.3-1.3 3.9l1.3 3.8c0.4 0.9 0.9 1.3 1.7 1.7l1.7 0.9-18.4 6.8c-0.4 0-0.8 0.5-1.2 0.9l-16.7 18.4c-0.5 0.9-0.9 2.1-0.5 3z"/></g></svg>