<svg version="1.2" xmlns="http://www.w3.org/2000/svg" viewBox="0 0 460 460" width="460" height="460"><style>.a{fill:none}.b{fill:#4faf3b}</style><filter id="f0"><feFlood flood-color="#f7ab00" flood-opacity="1" /><feBlend mode="normal" in2="SourceGraphic"/><feComposite in2="SourceAlpha" operator="in" /></filter><g filter="url(#f0)"><path fill-rule="evenodd" class="a" d="m21 0h417.5v459.2h-417.5z"/><path fill-rule="evenodd" class="b" d="m350.2 332.2q-0.6 0.1-1.1 0.5l-5.2 4.4c-0.5 0.4-0.7 0.9-0.8 1.5l-0.1 4.3-5.5 5.6c-0.3 0.3-0.5 0.7-0.5 1.1l-1 7.4-9.7 7.6-8.3 6q-0.2 0.1-0.4 0.3l-4.6 5.5c-0.1 0-2 2.1-4 4.3-1 1.1-2 2.3-2.8 3.2-0.4 0.4-0.7 0.8-1 1.2q-0.2 0.2-0.4 0.5c-0.1 0.2-0.3 0.2-0.3 1.3 0-0.3 0 0-0.1 0.2q0 0.4-0.1 1c-0.1 0.8-0.3 1.7-0.5 2.7-0.3 1.9-0.6 3.7-0.6 3.7-0.2 1.1 0.5 2.2 1.6 2.4l11.9 2.4 10.7 2.5c0.7 0.2 1.5-0.1 2-0.7l8.8-10.2q0.2-0.4 0.4-0.8l2.7-8.4q0.1-0.2 0.1-0.4l0.8-6.2 12.3-5.5c0.8-0.3 1.2-1.1 1.2-1.9q0-0.5-0.2-1l-1.6-3 1.4-2.2 6.5-8.3q0.3-0.4 0.4-0.8l1.3-5.2q0-0.3 0-0.6l-0.5-7.5c0-1.1-0.9-2-2-2-0.3 0-0.6 0.1-0.8 0.2l-5 2-2.9-5.9c-0.4-0.7-1.1-1.1-1.9-1.2q-0.1 0-0.2 0z"/><path fill-rule="evenodd" class="b" d="m350.6 263.6c-1.1 0.1-2 1-2 2.1 0 0.4 0.2 0.9 0.5 1.3l3.7 4.7 0.2 3.1q0.1 0.7 0.5 1.2l4.5 5.4 5.1 8.4 2.4 8.8-0.8 7.5-0.7 5.1-2.4 0.7c-0.5 0.1-1 0.4-1.2 0.8l-2 3c-0.4 0.6-0.5 1.5-0.1 2.1l2 3.5c0.2 0.4 0.6 0.7 1 0.9l4.5 1.7 2.8 1.5 1.4 2.7-2.7 4.4q-0.1 0.2-0.2 0.4l-1.4 4q-0.2 0.4-0.2 0.8c0 1 0.8 1.9 1.9 2l2.4 0.3 0.1 1.6c0.1 1.1 1 1.9 2.1 1.9 0.6 0 1.2-0.3 1.6-0.7l2.2-2.5 4.1-2.5q0.4-0.3 0.7-0.7l5-8.5q0.1-0.1 0.2-0.2l2.6-6.2q0.2-0.6 0.1-1.1l-0.4-3.3 2.1-1 2.9 1.9q0.5 0.3 1.1 0.3c1.2 0 2.1-0.9 2.1-2q0-0.1 0-0.1l-0.1-4.5h0.2c0.6-0.1 1.2-0.4 1.5-0.9l1.5-2.1q0.3-0.6 0.3-1.2v-3.5l1.9-3.1q0.3-0.5 0.3-1.1c0-0.7-0.4-1.4-1.1-1.8l-3.4-1.9q-0.5-0.3-1-0.3h-1.3q-0.7 0-1.2 0.4l-2.9 1.9q-0.2 0.1-0.3 0.2l-2.2 2.1h-0.1l-6-3.2q-0.3-0.2-0.7-0.2l-0.9-0.1-2.1-8.6c-0.2-1-1.1-1.6-2.1-1.6l-3.2 0.2c-0.5 0-0.9 0.2-1.2 0.4l-1.1-1.6-1.8-6.6-2-6.7c-0.1-0.6-0.5-1-1-1.3l-7.9-3.8-6.6-4.1q-0.5-0.3-1.2-0.3z"/><path fill-rule="evenodd" class="b" d="m221.4 122.9q-0.4 0-0.8 0.1l-2.7 1.2c-0.7 0.4-1.2 1-1.2 1.8l-0.4 5.6-2.1 2.7c-0.3 0.3-0.4 0.8-0.4 1.2 0 0.8 0.5 1.5 1.2 1.9l-2.7 5.6c-0.2 0.3-0.2 0.8-0.1 1.2l1.1 6.2-5.8 13.4-3.3-0.4-3.1-3.5q-0.3-0.4-0.7-0.6l-12.9-5.7-5.8-5.1 3.3-5.9c0.2-0.4 0.3-0.9 0.2-1.4 1-0.1 1.8-0.9 1.9-1.9l0.1-1.9 2.1-1.6c0.9-0.6 1.1-1.9 0.5-2.8l-2-2.9c-0.4-0.5-1-0.9-1.7-0.9-0.5 0-1 0.2-1.4 0.5l-1.2 1.1c-0.5-0.3-1.1-0.5-1.7-0.3l-3 0.7-2.4-1.8c-0.6-0.4-1.5-0.5-2.1-0.1l-1.7 0.8-0.1-0.4c-0.3-1-1.3-1.7-2.4-1.5l-2.1 0.3-8.1-3.2q-0.4-0.2-0.7-0.2c-1.2 0-2.1 1-2.1 2.1 0 0.5 0.2 1.1 0.5 1.4l2.5 2.6-5 0.6h-2.2q-0.3 0-0.7 0.1l-2.4 0.9c-0.6 0.3-1.1 0.8-1.3 1.4-1 0.1-1.9 1-1.9 2.1q0 0.2 0.1 0.4l0.5 2.5-2.1 0.7c-0.4 0.2-0.8 0.5-1.1 0.9l-2.4 4.3c-0.5 0.9-0.2 2.2 0.7 2.8l2 1.2-0.1 0.1-5.2-1.9q-0.6-0.2-1.1-0.1l-0.9 0.2-3.3-4.3c-0.4-0.5-0.9-0.8-1.5-0.8l-4.1-0.2c-0.5-0.1-1 0.1-1.4 0.4l-1.8 1.4-1.3 0.3c-0.6 0.2-1.2 0.7-1.4 1.4l-0.1 0.1c-0.8-0.4-1.9-0.2-2.6 0.5l-2.9 3.7c-0.5 0.5-0.6 1.3-0.4 2l-0.3 0.1c-0.4 0.2-0.7 0.5-1 0.8l-2.3 3.7c-0.4 0.5-0.5 1.2-0.3 1.8l-1.4-0.7q-0.4-0.2-0.9-0.2c-1.1 0-2.1 1-2.1 2.1q0 0.2 0.1 0.3l0.1 1.1c-0.6-0.1-1.2 0.1-1.7 0.6l-4.5 4.5c-0.5 0.5-0.7 1.2-0.5 1.9l1 4.3-5.8 6.4-10.4 4.9q-0.1 0.1-0.2 0.2l-8.3 5.5-2.3-0.3c-0.5-0.1-1.1 0.1-1.5 0.4l-10.7 8.4c-0.4 0.3-0.7 0.7-0.8 1.1l-0.2 0.9c-0.7-0.2-1.4-0.1-2 0.3l-1.7 1.3c-0.5 0.4-0.8 1-0.8 1.7v13.6q0 0.5 0.2 0.9l4.2 8.8-1.1 1.6c-0.5 0.7-0.4 1.8 0.1 2.5l7.6 9.1 4.1 9.5 1.6 5.9q0.1 0.3 0.3 0.6l4.9 6.9 0.9 4.1-2.5 1.4c-0.6 0.3-1 0.9-1.1 1.6l-0.4 4.3c-0.1 0.9 0.4 1.8 1.3 2.1l10.7 4.3q0.5 0.2 1.1 0.1l5.5-0.9c0.6 0 1.1-0.3 1.4-0.8l6.7-9 16.9-0.4c0.9 0 1.7-0.6 2-1.5l2.2-7.1 8.8-3.5 24-4.9 13.2 5.1c-0.2 0.9 0.1 1.8 0.9 2.3l2.6 1.7 3.4 8.3c0.2 0.4 0.5 0.8 0.9 1l2.3 1.4q0.5 0.3 1.1 0.3c1 0 1.9-0.7 2-1.7l0.3-1.9 5.6-5.9v0.3l-2.3 3.3q-0.3 0.4-0.3 1l-0.1 1.6-0.9 0.7c-0.6 0.4-0.9 1-0.9 1.7 0 1 0.8 1.9 1.9 2l3.5 0.3q0.4 0.1 0.8-0.1c-0.1 0.9 0.4 1.8 1.2 2.2l4.5 2.1 0.5 5.9q0.1 0.6 0.5 1.1l4.7 5.8q0.3 0.4 0.9 0.6l14.2 5.1c0.7 0.3 1.5 0.2 2-0.3l4.8-4 3.6 4.8c0.6 0.9 1.8 1.1 2.7 0.6l6.9-4.3q0.1 0 0.2-0.1l1.6-1.4 9.7-1c0.8-0.1 1.5-0.7 1.8-1.6l3.2-12 4.9-8.5 9.4-8.9q0.4-0.3 0.5-0.8l7.3-18.7q0.2-0.5 0.1-1l-1.1-9.1 1.1-8.5q0.1-0.7-0.2-1.2l-6.6-13.4q-0.3-0.4-0.7-0.7l-2.5-1.8-3.1-7.6c-0.4-0.8-1.2-1.4-2.2-1.3l-0.8 0.1-2.7-11.5c-0.1-0.5-0.4-0.9-0.8-1.2l-13.2-8.9-1.5-11q-0.2-0.7-0.6-1.2l-2.4-2.5 0.3-8.1c0-0.5-0.2-1.1-0.6-1.5l-4.5-4.8c-0.5-0.6-1.3-0.8-2.1-0.6l-2.3 0.6-0.7-7.4q0-0.3-0.1-0.6l-5.6-12.9c-0.4-0.8-1.2-1.3-2-1.2z"/><path fill-rule="evenodd" class="b" d="m221.6 303.4c-0.9 0.1-1.7 0.8-1.9 1.7l-0.9 4.4c-0.1 0.5 0 1 0.2 1.4l1.9 3.3 0.5-0.3c-0.8 0.6-1 1.7-0.6 2.5l1.8 3.4 1.1 2.4c0.1 0.4 0.5 0.8 0.9 1l3.9 1.9q0.4 0.2 0.9 0.3c0.9 0 1.7-0.6 2-1.5l0.7-2.1 0.8 0.7c0.3 0.4 0.9 0.6 1.4 0.6 0.9 0 1.7-0.6 2-1.4l2.2-6.6q0.1-0.3 0.1-0.6l0.4-7.3q0 0 0-0.1c0-1.1-1-2.1-2.1-2.1q-0.3 0-0.6 0.1l-6.4 2-7.3-3.4q-0.5-0.3-1-0.3z"/><path fill-rule="evenodd" class="b" d="m168.3 69.2q-0.3 0-0.6 0.1l-10.1 3.6c-0.6 0.2-1.1 0.6-1.3 1.1l-0.6 1.5q-0.1 0.4-0.1 0.8c0 0.9 0.6 1.8 1.5 2l6.8 1.9 0.2 0.3h-1.4c-1.1 0-2.1 0.9-2.1 2.1 0 0.8 0.5 1.5 1.2 1.8l4.9 2.4 0.9 2.7c0.3 0.9 1.2 1.5 2.2 1.4l4.8-0.5 0.9 1.7c0.2 0.6 0.7 0.9 1.3 1.1l13.7 4 2.1 2.4 1.7 3.3-1.3 0.3c-1 0.2-1.6 1.1-1.6 2q0 0.6 0.2 1.1l1.2 2.1c0.4 0.6 1.1 1 1.9 1l6.6-0.3 4.1 4.2c0.4 0.4 1 0.6 1.6 0.6l4.4-0.3 0.9 0.2c0.5 0.1 1 0.1 1.5-0.1l4.1-2.1c0.7-0.4 1.2-1.1 1.2-1.9 0-0.7-0.4-1.4-1.1-1.8l0.1-0.1 10.4 2.8 6.5 9.5c0.2 0.4 0.6 0.7 1.1 0.9l9 2.6 1.3 0.7c0.5 0.4 1.2 0.4 1.8 0.2l3.6-1.5c0.8-0.4 1.3-1.1 1.3-2 0-0.6-0.3-1.2-0.9-1.6l-4-3-1.3-2.5c-0.4-0.7-1.1-1.2-1.9-1.2h-2.1l-1.9-5.2c-0.2-0.5-0.5-0.9-1-1.1l-2.1-1.1c0.9-0.4 1.4-1.6 1-2.6l-1.2-3.2c-0.1-0.6-0.6-1-1.1-1.2l-6.2-2.7-1.1-2.3q-0.1-0.2-0.2-0.3l-3.6-4.8q-0.3-0.5-0.9-0.7l-31.9-12.8c-0.6-0.3-1.3-0.2-1.9 0.2l-5.4 3.6q-0.1 0.1-0.3 0.2l-3.7 3.8-2.7-0.4-4.3-8.5q-0.2-0.4-0.6-0.7l-4.1-3.3c-0.4-0.3-0.9-0.4-1.4-0.4z"/><path fill-rule="evenodd" class="b" d="m133.5 107.9q-0.6 0-1.2 0.4l-7.7 5c-0.4 0.3-0.8 0.8-0.9 1.3l-1.2 4.7q0 0.3 0 0.6c0 1 0.8 1.9 1.8 2l3 0.3c0.5 0.1 1-0.1 1.4-0.3l14.6-10.2c0.6-0.4 0.9-1 0.9-1.7 0-1.1-0.9-2.1-2.1-2.1z"/><path fill-rule="evenodd" class="b" d="m144.3 57.4c-0.8 0-1.6 0.5-1.9 1.3l-5 13.2c-0.3 0.7-0.2 1.5 0.4 2.1l5 5.6c0.4 0.5 0.9 0.7 1.5 0.7h5.5c1.2 0 2.1-0.9 2.1-2.1q0-0.5-0.3-1l-2.1-3.5h0.8c1.2 0 2.1-0.9 2.1-2q0-0.9-0.6-1.5l-2.3-2.2 2.2-1.8c0.4-0.4 0.7-1 0.7-1.6 0-1.1-0.9-2-2.1-2h-2.6l-1.4-3.9c-0.4-0.8-1.1-1.3-2-1.3z"/></g></svg>